# xmcd
#
# Track frame offsets: 
#        150
#        22719
#        41953
#        61732
#        74285
#        95362
#        113904
#        137313
#        153287
#        171041
#
# Disc length: 2531 seconds
#
# Revision: 0
# Processed by: cddbd v1.5.2PL0 Copyright (c) Steve Scherf et al.
# Submitted via: ExactAudioCopy v1.1
#
DISCID=7409e10a
DTITLE=The Manhattans - Too Hot to Stop It (Expanded Version)
DYEAR=1985
DGENRE=Soul
TTITLE0=Don't Say No
TTITLE1=You Send Me
TTITLE2=Angel Of The Night
TTITLE3=When We Are Made as One
TTITLE4=C'est La Vie
TTITLE5=Dreamin'
TTITLE6=You're Gonna Love Being Loved By Me
TTITLE7=Too Hot To Stop It
TTITLE8=You Send Me [Single Version]
TTITLE9=Don't Say No [Single Version]
EXTD=
EXTT0=
EXTT1=
EXTT2=
EXTT3=
EXTT4=
EXTT5=
EXTT6=
EXTT7=
EXTT8=
EXTT9=
PLAYORDER=
